<?xml version="1.0" standalone="no"?>
<!DOCTYPE svg PUBLIC "-//W3C//DTD SVG 20010904//EN"
 "http://www.w3.org/TR/2001/REC-SVG-20010904/DTD/svg10.dtd">
<svg version="1.0" xmlns="http://www.w3.org/2000/svg"
 width="1280.000000pt" height="680.000000pt" viewBox="0 0 1280.000000 680.000000"
 preserveAspectRatio="xMidYMid meet">

<g transform="translate(0.000000,680.000000) scale(0.100000,-0.100000)"
fill="#000000" stroke="none">
<path d="M2205 5313 c-16 -2 -70 -13 -120 -24 -340 -80 -641 -340 -773 -670
-74 -182 -98 -400 -66 -583 84 -481 425 -833 899 -926 88 -18 135 -21 242 -18
79 2 137 8 144 15 8 8 -2 28 -39 74 -435 557 -477 1212 -115 1821 42 70 105
164 140 208 36 45 63 84 61 86 -18 17 -276 29 -373 17z"/>
<path d="M5780 5114 c-271 -18 -664 -65 -864 -105 -217 -43 -409 -111 -461
-163 -38 -38 -34 -104 14 -246 47 -137 67 -186 81 -195 5 -3 51 1 102 9 181
30 451 67 456 62 13 -13 -145 -439 -397 -1067 -281 -704 -367 -937 -391 -1061
-12 -57 -11 -81 2 -161 8 -52 27 -120 41 -150 52 -113 167 -206 289 -231 72
-16 88 -7 88 46 0 144 148 561 480 1348 314 746 429 1049 465 1229 17 83 25
313 13 371 l-8 35 16 -35 c9 -19 23 -80 31 -135 8 -55 18 -103 22 -108 4 -4
77 -2 162 4 238 17 447 1 491 -38 15 -14 17 -12 24 22 4 21 4 77 0 125 -16
212 -90 356 -214 417 -55 27 -62 28 -222 29 -91 1 -190 0 -220 -2z"/>
<path d="M1125 4812 c-254 -211 -425 -503 -479 -817 -20 -114 -20 -322 -1
-442 18 -109 72 -278 122 -377 227 -454 697 -746 1201 -746 392 0 781 184
1028 485 41 49 74 93 74 97 0 5 -19 -4 -42 -19 -178 -112 -443 -183 -685 -183
-316 0 -645 123 -874 326 -186 166 -315 361 -394 597 -85 253 -88 555 -9 816
28 91 91 234 123 280 43 60 23 55 -64 -17z"/>
<path d="M9795 4648 c-57 -45 -145 -218 -145 -286 0 -25 6 -29 78 -50 113 -34
256 -106 303 -153 22 -22 42 -39 43 -37 2 2 13 29 25 61 31 84 66 150 95 178
31 29 32 48 7 98 -37 72 -129 135 -264 182 -99 35 -107 35 -142 7z"/>
<path d="M2896 4550 c-3 -8 -16 -46 -29 -85 l-24 -70 -94 -5 -94 -5 73 -53
c39 -30 72 -58 72 -62 0 -5 -11 -44 -25 -87 -13 -42 -23 -79 -21 -80 2 -2 34
19 72 47 38 28 75 48 82 45 7 -3 42 -26 78 -51 35 -25 64 -42 64 -37 0 5 -11
43 -25 83 -14 40 -25 77 -25 80 0 4 34 31 76 61 l75 54 -96 5 -97 5 -28 85
c-16 51 -30 79 -34 70z"/>
<path d="M11886 4439 c-49 -55 -145 -236 -221 -416 -25 -61 -52 -116 -58 -121
-20 -15 -361 -122 -390 -122 -4 0 -21 28 -38 61 -55 110 -147 192 -257 230
-69 24 -216 25 -332 3 -231 -43 -498 -185 -636 -338 -30 -33 -56 -57 -59 -54
-7 7 41 91 65 113 37 33 17 99 -50 164 -51 49 -177 114 -255 132 -55 12 -56
12 -85 -16 -87 -84 -236 -467 -390 -1008 -141 -497 -216 -819 -207 -898 20
-173 209 -309 447 -321 l55 -3 5 67 5 68 45 -36 c106 -84 231 -134 414 -166
100 -17 146 -19 266 -15 215 9 363 51 502 144 126 83 201 204 218 351 27 238
-78 373 -433 553 -150 76 -227 128 -264 176 -25 32 -28 44 -26 104 7 227 239
520 432 546 40 6 41 5 41 -26 0 -17 -9 -71 -20 -121 -11 -49 -17 -96 -14 -104
11 -27 143 -85 223 -97 99 -15 240 1 461 51 46 10 86 18 87 16 1 -1 -28 -110
-66 -242 -147 -513 -206 -863 -167 -996 42 -145 180 -239 399 -271 62 -9 80
-9 86 2 4 7 11 63 14 124 10 187 58 476 138 831 56 248 178 689 196 707 13 13
188 48 273 55 95 7 146 -8 177 -55 l23 -34 30 66 c72 159 91 321 48 407 -42
83 -150 140 -264 140 -29 0 -56 5 -59 10 -7 11 36 75 64 96 13 10 13 18 2 54
-19 63 -91 134 -175 174 -68 32 -166 66 -192 66 -7 0 -33 -23 -58 -51z m-2189
-1599 c34 -73 90 -138 171 -198 104 -76 184 -116 413 -208 117 -46 217 -88
222 -93 12 -12 -63 -45 -152 -66 -56 -14 -99 -16 -213 -12 -152 5 -231 23
-332 74 -72 36 -152 120 -166 174 -7 24 -14 51 -17 59 -3 11 -12 6 -33 -20
-16 -19 -30 -32 -30 -29 0 10 79 380 87 404 6 19 7 18 15 -5 6 -14 21 -50 35
-80z"/>
<path d="M5756 4014 c-17 -212 -64 -406 -221 -924 -170 -559 -205 -706 -208
-867 -2 -69 2 -85 28 -138 76 -152 264 -262 409 -241 65 10 169 66 253 136 82
68 217 225 299 348 31 45 58 81 60 79 2 -2 -3 -37 -12 -78 -23 -106 -15 -213
19 -271 66 -114 212 -191 405 -213 l62 -7 0 54 c0 178 72 621 159 978 100 412
263 878 324 929 44 36 1 128 -90 196 -50 36 -183 93 -240 102 -28 5 -38 0 -66
-29 -18 -19 -47 -62 -65 -95 -60 -113 -176 -427 -257 -698 -31 -102 -59 -156
-196 -377 -178 -285 -361 -521 -507 -651 -77 -69 -88 -64 -77 36 17 161 44
263 209 785 134 428 167 585 147 697 -32 173 -185 313 -362 331 l-66 6 -7 -88z"/>
<path d="M7698 4068 c-109 -117 -317 -710 -497 -1420 -93 -368 -105 -449 -76
-545 39 -131 207 -233 426 -258 l55 -7 13 149 c13 146 41 359 61 459 23 113
352 680 532 918 97 129 226 273 297 334 l66 55 3 -49 c8 -114 -39 -304 -198
-814 -132 -423 -171 -594 -154 -688 18 -101 104 -195 239 -262 87 -42 226 -90
262 -90 21 0 23 4 23 58 0 86 18 271 41 417 28 178 64 332 170 731 108 412
130 519 132 649 2 120 -15 163 -100 256 -106 114 -262 164 -394 126 -108 -32
-285 -186 -420 -367 -76 -101 -220 -322 -254 -390 -47 -93 -39 -40 21 132 67
193 111 291 149 336 l27 33 -16 43 c-31 81 -134 158 -274 205 -82 28 -99 27
-134 -11z"/>
<path d="M3591 3440 c-207 -770 -944 -1290 -1730 -1221 -166 14 -310 45 -446
96 -510 189 -896 618 -1036 1155 -11 42 -12 43 -19 19 -4 -14 -13 -86 -20
-160 -35 -395 96 -823 352 -1150 228 -291 569 -508 927 -590 224 -52 518 -52
742 0 426 98 810 376 1039 752 141 231 214 455 240 738 12 120 3 307 -19 411
-7 34 -8 32 -30 -50z"/>
</g>
</svg>
